<mxfile host="app.diagrams.net" modified="2024-07-18T13:16:52.542Z" agent="Mozilla/5.0 (Windows NT 10.0; Win64; x64) AppleWebKit/537.36 (KHTML, like Gecko) Chrome/126.0.0.0 Safari/537.36 Edg/126.0.0.0" etag="0lfZE80n-8iI73PTOP4s" version="24.7.1" type="github">
  <diagram name="Seite-1" id="ki33p42vSa4L1oq7eOhh">
    <mxGraphModel dx="792" dy="453" grid="1" gridSize="10" guides="1" tooltips="1" connect="1" arrows="1" fold="1" page="1" pageScale="1" pageWidth="827" pageHeight="1169" math="0" shadow="0">
      <root>
        <mxCell id="0" />
        <mxCell id="1" parent="0" />
        <mxCell id="ZwKA_2qXoYGPpnkhImkM-15" style="edgeStyle=orthogonalEdgeStyle;rounded=0;orthogonalLoop=1;jettySize=auto;html=1;exitX=0.5;exitY=1;exitDx=0;exitDy=0;entryX=0.5;entryY=0;entryDx=0;entryDy=0;fillColor=#ffe6cc;strokeColor=#d79b00;" edge="1" parent="1" source="ZwKA_2qXoYGPpnkhImkM-1" target="ZwKA_2qXoYGPpnkhImkM-12">
          <mxGeometry relative="1" as="geometry" />
        </mxCell>
        <mxCell id="ZwKA_2qXoYGPpnkhImkM-1" value="cutting" style="shape=process;whiteSpace=wrap;html=1;backgroundOutline=1;fillColor=#ffe6cc;strokeColor=#d79b00;" vertex="1" parent="1">
          <mxGeometry x="320" y="280" width="120" height="60" as="geometry" />
        </mxCell>
        <mxCell id="ZwKA_2qXoYGPpnkhImkM-16" style="edgeStyle=orthogonalEdgeStyle;rounded=0;orthogonalLoop=1;jettySize=auto;html=1;exitX=1;exitY=0.5;exitDx=0;exitDy=0;entryX=0;entryY=0.5;entryDx=0;entryDy=0;fillColor=#ffe6cc;strokeColor=#d79b00;" edge="1" parent="1" source="ZwKA_2qXoYGPpnkhImkM-2" target="ZwKA_2qXoYGPpnkhImkM-1">
          <mxGeometry relative="1" as="geometry" />
        </mxCell>
        <mxCell id="ZwKA_2qXoYGPpnkhImkM-2" value="42CrMoS4 raw material (rod)" style="rounded=0;whiteSpace=wrap;html=1;fillColor=#ffe6cc;strokeColor=#d79b00;" vertex="1" parent="1">
          <mxGeometry x="150" y="280" width="120" height="60" as="geometry" />
        </mxCell>
        <mxCell id="ZwKA_2qXoYGPpnkhImkM-6" value="heat treatment" style="shape=process;whiteSpace=wrap;html=1;backgroundOutline=1;fillColor=#ffe6cc;strokeColor=#d79b00;" vertex="1" parent="1">
          <mxGeometry x="320" y="400" width="120" height="60" as="geometry" />
        </mxCell>
        <mxCell id="ZwKA_2qXoYGPpnkhImkM-29" style="edgeStyle=orthogonalEdgeStyle;rounded=0;orthogonalLoop=1;jettySize=auto;html=1;exitX=0.5;exitY=1;exitDx=0;exitDy=0;entryX=0.5;entryY=0;entryDx=0;entryDy=0;fillColor=#ffe6cc;strokeColor=#d79b00;" edge="1" parent="1" source="ZwKA_2qXoYGPpnkhImkM-13" target="ZwKA_2qXoYGPpnkhImkM-22">
          <mxGeometry relative="1" as="geometry" />
        </mxCell>
        <mxCell id="ZwKA_2qXoYGPpnkhImkM-13" value="shipping" style="shape=process;whiteSpace=wrap;html=1;backgroundOutline=1;fillColor=#ffe6cc;strokeColor=#d79b00;" vertex="1" parent="1">
          <mxGeometry x="640" y="410" width="120" height="60" as="geometry" />
        </mxCell>
        <mxCell id="ZwKA_2qXoYGPpnkhImkM-20" style="edgeStyle=orthogonalEdgeStyle;rounded=0;orthogonalLoop=1;jettySize=auto;html=1;exitX=1;exitY=0.5;exitDx=0;exitDy=0;entryX=0;entryY=0.5;entryDx=0;entryDy=0;fillColor=#ffe6cc;strokeColor=#d79b00;" edge="1" parent="1" source="ZwKA_2qXoYGPpnkhImkM-6" target="ZwKA_2qXoYGPpnkhImkM-9">
          <mxGeometry relative="1" as="geometry" />
        </mxCell>
        <mxCell id="ZwKA_2qXoYGPpnkhImkM-30" style="edgeStyle=orthogonalEdgeStyle;rounded=0;orthogonalLoop=1;jettySize=auto;html=1;exitX=1;exitY=0.5;exitDx=0;exitDy=0;entryX=0;entryY=0.5;entryDx=0;entryDy=0;fillColor=#f5f5f5;strokeColor=#666666;" edge="1" parent="1" source="ZwKA_2qXoYGPpnkhImkM-22" target="ZwKA_2qXoYGPpnkhImkM-28">
          <mxGeometry relative="1" as="geometry" />
        </mxCell>
        <mxCell id="ZwKA_2qXoYGPpnkhImkM-31" style="edgeStyle=orthogonalEdgeStyle;rounded=0;orthogonalLoop=1;jettySize=auto;html=1;exitX=1;exitY=0.5;exitDx=0;exitDy=0;entryX=0;entryY=0.5;entryDx=0;entryDy=0;fillColor=#ffe6cc;strokeColor=#d79b00;" edge="1" parent="1" source="ZwKA_2qXoYGPpnkhImkM-22" target="ZwKA_2qXoYGPpnkhImkM-25">
          <mxGeometry relative="1" as="geometry" />
        </mxCell>
        <mxCell id="ZwKA_2qXoYGPpnkhImkM-22" value="specimen machining" style="shape=process;whiteSpace=wrap;html=1;backgroundOutline=1;fillColor=#ffe6cc;strokeColor=#d79b00;" vertex="1" parent="1">
          <mxGeometry x="160" y="520" width="120" height="60" as="geometry" />
        </mxCell>
        <mxCell id="ZwKA_2qXoYGPpnkhImkM-26" value="" style="group;" vertex="1" connectable="0" parent="1">
          <mxGeometry x="320" y="520" width="130" height="70" as="geometry" />
        </mxCell>
        <mxCell id="ZwKA_2qXoYGPpnkhImkM-27" value="96 blanks" style="rounded=0;whiteSpace=wrap;html=1;fillColor=#f5f5f5;fontColor=#333333;strokeColor=#666666;" vertex="1" parent="ZwKA_2qXoYGPpnkhImkM-26">
          <mxGeometry x="10" y="10" width="120" height="60" as="geometry" />
        </mxCell>
        <mxCell id="ZwKA_2qXoYGPpnkhImkM-28" value="5 batches of metallographic specimens (14 each)" style="rounded=0;whiteSpace=wrap;html=1;fillColor=#f5f5f5;fontColor=#333333;strokeColor=#666666;" vertex="1" parent="ZwKA_2qXoYGPpnkhImkM-26">
          <mxGeometry width="120" height="60" as="geometry" />
        </mxCell>
        <mxCell id="ZwKA_2qXoYGPpnkhImkM-43" style="edgeStyle=orthogonalEdgeStyle;rounded=0;orthogonalLoop=1;jettySize=auto;html=1;exitX=1;exitY=0.5;exitDx=0;exitDy=0;entryX=0;entryY=0.5;entryDx=0;entryDy=0;fillColor=#f5f5f5;strokeColor=#666666;" edge="1" parent="1" source="ZwKA_2qXoYGPpnkhImkM-32" target="ZwKA_2qXoYGPpnkhImkM-40">
          <mxGeometry relative="1" as="geometry" />
        </mxCell>
        <mxCell id="ZwKA_2qXoYGPpnkhImkM-32" value="metallographic analyses" style="shape=process;whiteSpace=wrap;html=1;backgroundOutline=1;fillColor=#f5f5f5;fontColor=#333333;strokeColor=#666666;" vertex="1" parent="1">
          <mxGeometry x="480" y="530" width="120" height="60" as="geometry" />
        </mxCell>
        <mxCell id="ZwKA_2qXoYGPpnkhImkM-42" style="edgeStyle=orthogonalEdgeStyle;rounded=0;orthogonalLoop=1;jettySize=auto;html=1;exitX=1;exitY=0.5;exitDx=0;exitDy=0;entryX=0;entryY=0.5;entryDx=0;entryDy=0;fillColor=#ffe6cc;strokeColor=#d79b00;" edge="1" parent="1" source="ZwKA_2qXoYGPpnkhImkM-34" target="ZwKA_2qXoYGPpnkhImkM-41">
          <mxGeometry relative="1" as="geometry" />
        </mxCell>
        <mxCell id="ZwKA_2qXoYGPpnkhImkM-34" value="tensile testing" style="shape=process;whiteSpace=wrap;html=1;backgroundOutline=1;fillColor=#ffe6cc;strokeColor=#d79b00;" vertex="1" parent="1">
          <mxGeometry x="480" y="610" width="120" height="60" as="geometry" />
        </mxCell>
        <mxCell id="ZwKA_2qXoYGPpnkhImkM-36" style="edgeStyle=orthogonalEdgeStyle;rounded=0;orthogonalLoop=1;jettySize=auto;html=1;exitX=1;exitY=0.5;exitDx=0;exitDy=0;entryX=0;entryY=0.5;entryDx=0;entryDy=0;fillColor=#ffe6cc;strokeColor=#d79b00;" edge="1" parent="1" source="ZwKA_2qXoYGPpnkhImkM-11" target="ZwKA_2qXoYGPpnkhImkM-6">
          <mxGeometry relative="1" as="geometry" />
        </mxCell>
        <mxCell id="ZwKA_2qXoYGPpnkhImkM-37" style="edgeStyle=orthogonalEdgeStyle;rounded=0;orthogonalLoop=1;jettySize=auto;html=1;exitX=1;exitY=0.5;exitDx=0;exitDy=0;fillColor=#ffe6cc;strokeColor=#d79b00;" edge="1" parent="1" source="ZwKA_2qXoYGPpnkhImkM-8" target="ZwKA_2qXoYGPpnkhImkM-13">
          <mxGeometry relative="1" as="geometry" />
        </mxCell>
        <mxCell id="ZwKA_2qXoYGPpnkhImkM-38" style="edgeStyle=orthogonalEdgeStyle;rounded=0;orthogonalLoop=1;jettySize=auto;html=1;exitX=1;exitY=0.5;exitDx=0;exitDy=0;entryX=0;entryY=0.5;entryDx=0;entryDy=0;fillColor=#f5f5f5;strokeColor=#666666;" edge="1" parent="1" source="ZwKA_2qXoYGPpnkhImkM-27" target="ZwKA_2qXoYGPpnkhImkM-32">
          <mxGeometry relative="1" as="geometry" />
        </mxCell>
        <mxCell id="ZwKA_2qXoYGPpnkhImkM-39" style="edgeStyle=orthogonalEdgeStyle;rounded=0;orthogonalLoop=1;jettySize=auto;html=1;exitX=1;exitY=0.5;exitDx=0;exitDy=0;entryX=0;entryY=0.5;entryDx=0;entryDy=0;fillColor=#ffe6cc;strokeColor=#d79b00;" edge="1" parent="1" source="ZwKA_2qXoYGPpnkhImkM-24" target="ZwKA_2qXoYGPpnkhImkM-34">
          <mxGeometry relative="1" as="geometry" />
        </mxCell>
        <mxCell id="ZwKA_2qXoYGPpnkhImkM-40" value="grain size; hardness" style="shape=document;whiteSpace=wrap;html=1;boundedLbl=1;fillColor=#f5f5f5;strokeColor=#666666;fontColor=#333333;" vertex="1" parent="1">
          <mxGeometry x="640" y="530" width="120" height="60" as="geometry" />
        </mxCell>
        <mxCell id="ZwKA_2qXoYGPpnkhImkM-41" value="stress/strain curve; Rp02; Rm; ..." style="shape=document;whiteSpace=wrap;html=1;boundedLbl=1;fillColor=#ffe6cc;strokeColor=#d79b00;" vertex="1" parent="1">
          <mxGeometry x="640" y="610" width="120" height="60" as="geometry" />
        </mxCell>
        <mxCell id="ZwKA_2qXoYGPpnkhImkM-24" value="96 blanks" style="rounded=0;whiteSpace=wrap;html=1;fillColor=#ffe6cc;strokeColor=#d79b00;" vertex="1" parent="1">
          <mxGeometry x="330" y="610" width="120" height="60" as="geometry" />
        </mxCell>
        <mxCell id="ZwKA_2qXoYGPpnkhImkM-25" value="5 batches of tensile test specimens (14 each)" style="rounded=0;whiteSpace=wrap;html=1;fillColor=#ffe6cc;strokeColor=#d79b00;" vertex="1" parent="1">
          <mxGeometry x="320" y="600" width="120" height="60" as="geometry" />
        </mxCell>
        <mxCell id="ZwKA_2qXoYGPpnkhImkM-8" value="96 blanks" style="rounded=0;whiteSpace=wrap;html=1;fillColor=#ffe6cc;strokeColor=#d79b00;" vertex="1" parent="1">
          <mxGeometry x="490" y="410" width="120" height="60" as="geometry" />
        </mxCell>
        <mxCell id="ZwKA_2qXoYGPpnkhImkM-9" value="5 batches of heat treated blanks (14 each)" style="rounded=0;whiteSpace=wrap;html=1;fillColor=#ffe6cc;strokeColor=#d79b00;" vertex="1" parent="1">
          <mxGeometry x="480" y="400" width="120" height="60" as="geometry" />
        </mxCell>
        <mxCell id="ZwKA_2qXoYGPpnkhImkM-11" value="96 blanks" style="rounded=0;whiteSpace=wrap;html=1;fillColor=#ffe6cc;strokeColor=#d79b00;" vertex="1" parent="1">
          <mxGeometry x="160" y="400" width="120" height="60" as="geometry" />
        </mxCell>
        <mxCell id="ZwKA_2qXoYGPpnkhImkM-12" value="96 blanks" style="rounded=0;whiteSpace=wrap;html=1;fillColor=#ffe6cc;strokeColor=#d79b00;" vertex="1" parent="1">
          <mxGeometry x="150" y="390" width="120" height="60" as="geometry" />
        </mxCell>
      </root>
    </mxGraphModel>
  </diagram>
</mxfile>
